<?xml version="1.0" encoding="utf-8"?>
<!-- Generator: Adobe Illustrator 21.1.0, SVG Export Plug-In . SVG Version: 6.00 Build 0)  -->
<svg version="1.1" id="图层_1" xmlns="http://www.w3.org/2000/svg" xmlns:xlink="http://www.w3.org/1999/xlink" x="0px" y="0px"
	 viewBox="0 0 16 16" style="enable-background:new 0 0 16 16;" xml:space="preserve">
<style type="text/css">
	.st0{fill:#6C85AE;}
</style>
<title>关闭</title>
<desc>Created with Sketch.</desc>
<g id="Page-1">
	<g id="_x31_.0提现_xFF08_有地址_xFF09_" transform="translate(-620.000000, -123.000000)">
		<path id="关闭" class="st0" d="M633.7,135.3c0.4,0.4,0.4,1,0,1.4c-0.2,0.2-0.4,0.3-0.7,0.3c-0.3,0-0.5-0.1-0.7-0.3l-4.3-4.3
			l-4.3,4.2c-0.2,0.2-0.4,0.3-0.7,0.3c-0.3,0-0.5-0.1-0.7-0.3c-0.4-0.4-0.4-1,0-1.4l4.3-4.2l-4.2-4.3c-0.4-0.4-0.4-1,0-1.4
			c0.4-0.4,1-0.4,1.4,0l4.2,4.3l4.3-4.3c0.4-0.4,1-0.4,1.4,0c0.4,0.4,0.4,1,0,1.4l-4.3,4.3L633.7,135.3z"/>
	</g>
</g>
</svg>
